#!OML:ASF F:\VICON\USERDATA\INSTALL\rory7\rory7.ASF
:FULLY-SPECIFIED
:DEGREES
1453
root 0.577231 18.8275 2.48479 -4.24985 -6.27697 1.67684
lowerback 4.54693 0.718187 -3.48814
upperback 0.466854 0.744647 -1.58683
thorax -2.09299 0.3942 0.277849
lowerneck -7.58879 -8.20128 -10.8167
upperneck 19.4959 -11.1088 6.78616
head 8.28489 -5.50063 2.91198
rclavicle 4.53478e-015 -1.39149e-014
rhumerus -26.5441 45.8394 -96.6719
rradius 99.4932
rwrist -9.20157
rhand -40.3167 18.9193
rfingers 7.12502
rthumb -13.273 -10.6381
lclavicle 4.53478e-015 -1.39149e-014
lhumerus -23.4954 -47.5276 91.9948
lradius 112.681
lwrist 26.7575
lhand -36.9417 39.386
lfingers 7.12502
lthumb -10.0184 69.1276
rfemur 8.15173 20.504 16.7251
rtibia 7.58264
rfoot -10.5584 -22.7422
rtoes -7.34815
lfemur 6.92713 -9.38216 -20.1931
ltibia 9.33444
lfoot -11.2343 19.2153
ltoes -5.02371
1454
root 0.577721 18.8265 2.48274 -4.24888 -6.28358 1.61984
lowerback 4.52012 0.73992 -3.43263
upperback 0.459093 0.777675 -1.57829
thorax -2.08633 0.410235 0.253762
lowerneck -7.94778 -8.19282 -10.8212
upperneck 20.2112 -11.1013 6.7612
head 8.58972 -5.49048 2.88737
rclavicle 7.05686e-015 -3.97569e-016
rhumerus -26.5211 45.8183 -96.6255
rradius 99.4707
rwrist -9.48228
rhand -40.1843 18.3637
rfingers 7.12502
rthumb -13.1455 -11.202
lclavicle 7.05686e-015 -3.97569e-016
lhumerus -23.3637 -47.4561 91.8886
lradius 112.592
lwrist 27.2374
lhand -36.7754 38.9857
lfingers 7.12502
lthumb -9.85798 68.7349
rfemur 8.12676 20.5063 16.7861
rtibia 7.63135
rfoot -10.6257 -22.7319
rtoes -7.2328
lfemur 6.93919 -9.37328 -20.1305
ltibia 9.28744
lfoot -11.1511 19.2436
ltoes -5.39136
1455
root 0.578222 18.8255 2.48336 -4.27421 -6.23406 1.62909
lowerback 4.50785 0.728464 -3.45711
upperback 0.438677 0.760972 -1.58544
thorax -2.10022 0.402451 0.261132
lowerneck -8.22917 -8.14908 -10.9024
upperneck 20.9337 -11.0666 6.84837
head 8.89461 -5.46528 2.92018
rclavicle 1.93194e-014 -2.18663e-014
rhumerus -26.5459 45.892 -96.6429
rradius 99.4082
rwrist -9.72177
rhand -40.0562 17.6774
rfingers 7.12502
rthumb -13.022 -11.8961
lclavicle 1.93194e-014 -2.18663e-014
lhumerus -23.3326 -47.4122 91.8262
lradius 112.552
lwrist 27.6071
lhand -36.5226 38.4737
lfingers 7.12502
lthumb -9.61404 68.2343
rfemur 8.18736 20.4582 16.7883
rtibia 7.60112
rfoot -10.6256 -22.7299
rtoes -7.30102
lfemur 6.96045 -9.41488 -20.1458
ltibia 9.3032
lfoot -11.2116 19.2122
ltoes -5.27372
1456
root 0.58001 18.8262 2.48558 -4.27125 -6.14188 1.70286
lowerback 4.47917 0.708757 -3.52265
upperback 0.398653 0.730769 -1.61966
thorax -2.12485 0.388505 0.264511
lowerneck -8.50123 -8.11662 -10.9136
upperneck 21.6433 -11.0413 6.85197
head 9.18822 -5.44699 2.91397
rclavicle 7.85199e-015 -1.98785e-015
rhumerus -26.6621 45.9371 -96.7125
rradius 99.359
rwrist -9.93733
rhand -39.8768 17.5661
rfingers 7.12502
rthumb -12.8491 -12.0184
lclavicle 7.85199e-015 -1.98785e-015
lhumerus -23.3273 -47.4121 91.7716
lradius 112.56
lwrist 27.9258
lhand -36.1148 38.0085
lfingers 7.12502
lthumb -9.22059 67.7869
rfemur 8.26641 20.3716 16.7011
rtibia 7.48795
rfoot -10.5869 -22.7741
rtoes -7.33276
lfemur 6.91519 -9.4927 -20.2363
ltibia 9.38136
lfoot -11.3392 19.1339
ltoes -5.03582
1457
root 0.580953 18.8267 2.4865 -4.25284 -6.09647 1.69873
lowerback 4.47164 0.726586 -3.48933
upperback 0.313622 0.752867 -1.65679
thorax -2.20796 0.400894 0.205601
lowerneck -8.61328 -8.10599 -10.8006
upperneck 22.2619 -11.0477 6.72221
head 9.41066 -5.45077 2.84509
rclavicle 1.11071e-014 8.34896e-015
rhumerus -26.8811 45.87 -96.8693
rradius 99.3179
rwrist -10.0998
rhand -39.7394 17.8613
rfingers 7.12502
rthumb -12.7166 -11.7315
lclavicle 1.11071e-014 8.34896e-015
lhumerus -23.4245 -47.4801 91.7653
lradius 112.575
lwrist 28.3305
lhand -35.8334 37.5345
lfingers 7.12502
lthumb -8.94904 67.3247
rfemur 8.30615 20.3241 16.7021
rtibia 7.38562
rfoot -10.4623 -22.8359
rtoes -7.54143
lfemur 6.87447 -9.53103 -20.2334
ltibia 9.42688
lfoot -11.4021 19.0511
ltoes -5.08872
1458
root 0.581012 18.8268 2.48468 -4.29018 -6.10525 1.61517
lowerback 4.5712 0.752004 -3.38964
upperback 0.21973 0.783476 -1.66863
thorax -2.35989 0.417775 0.133432
lowerneck -8.65971 -8.06871 -10.7252
upperneck 22.8609 -11.0254 6.63347
head 9.61785 -5.44206 2.80275
rclavicle 6.34869e-015 -3.1408e-014
rhumerus -27.1061 45.826 -97.0558
rradius 99.2654
rwrist -10.2173
rhand -39.6506 17.8924
rfingers 7.12502
rthumb -12.631 -11.7057
lclavicle 6.34869e-015 -3.1408e-014
lhumerus -23.5615 -47.536 91.7816
lradius 112.592
lwrist 28.7267
lhand -35.6 37.2977
lfingers 7.12502
lthumb -8.7238 67.0974
rfemur 8.37626 20.3278 16.8141
rtibia 7.30546
rfoot -10.367 -22.8615
rtoes -7.63334
lfemur 6.91201 -9.5225 -20.1455
ltibia 9.44293
lfoot -11.4191 18.9967
ltoes -5.18477
